<svg xmlns="http://www.w3.org/2000/svg" xmlns:xlink="http://www.w3.org/1999/xlink" width="1440" height="368" viewBox="0 0 1440 368">
  <defs>
    <clipPath id="clip-path">
      <rect id="Rectangle" width="1440" height="368" transform="translate(113)" fill="#dbe6ee"/>
    </clipPath>
  </defs>
  <g id="BG" transform="translate(-113)">
    <g id="Groupe_de_masques_10" data-name="Groupe de masques 10" clip-path="url(#clip-path)">
      <rect id="Rectangle-2" data-name="Rectangle" width="1440" height="368" transform="translate(113)" fill="#eef4f8"/>
      <g id="Lyon" transform="translate(0.002 22)" opacity="0.5">
        <path id="Fill_1" data-name="Fill 1" d="M-453.475,691h0v0c4.784-7.033,6.455-14.133,4.966-21.1a31.466,31.466,0,0,0-7.722-14.266,55.668,55.668,0,0,0-12.078-9.942,34.237,34.237,0,0,1,5.815-.5,41.309,41.309,0,0,1,15.184,3.084,61.71,61.71,0,0,1,12.439,6.784,72.374,72.374,0,0,1,11.5,9.868,32.006,32.006,0,0,0-.565-16.325,31.825,31.825,0,0,0-7.2-12.1,45.889,45.889,0,0,0-10.43-8.232,56.229,56.229,0,0,0-10.253-4.711,64.223,64.223,0,0,1,11.456-3.083,81.7,81.7,0,0,1,14.428-1.3,64.712,64.712,0,0,1,17.157,2.167,27.5,27.5,0,0,0-7.828-11.821,38.787,38.787,0,0,0-12.551-7.24,72.519,72.519,0,0,0-15.52-3.63,130.1,130.1,0,0,0-16.736-.994c-6.795,0-14.283.412-22.892,1.259-3.229-13.377-5.991-25.219-7.074-34.651-1.1-9.614-.449-16.369,2.121-21.9a25.5,25.5,0,0,1,5.758-7.86,45.364,45.364,0,0,1,9.556-6.7c7.089-3.871,16.811-7.647,32.508-12.626A27.467,27.467,0,0,0-440,522.073a34.231,34.231,0,0,0,2.882,6.27,25.946,25.946,0,0,0,7.454,8.458,59.23,59.23,0,0,1,4.826-14.686,42.314,42.314,0,0,1,6.944-10.439,40.036,40.036,0,0,1,9.309-.881,80.483,80.483,0,0,1,15.924,1.69,101.189,101.189,0,0,1,20.649,6.635,29.376,29.376,0,0,0-6.5-11.35,63.587,63.587,0,0,0-10.026-9.1,95.074,95.074,0,0,0-13.241-8.247l24.971-36.458c1.171.348,3.139.839,5.632,1.46l.022.005c8.1,2.018,21.662,5.4,33.31,10.141a63.9,63.9,0,0,1,15.024,8.118c4.174,3.272,6.3,6.669,6.319,10.095.035,6.387-3.809,22.379-9.794,40.74-6.339,19.449-13.423,36.622-18.952,45.94a29.477,29.477,0,0,0,4.888.414,29.841,29.841,0,0,0,12.19-2.664,39.065,39.065,0,0,0,9.218-5.861,45.387,45.387,0,0,0,7.869-8.525c.323,3.846,2.583,8.492,6.044,12.428a26.14,26.14,0,0,0,5.693,4.905,15.782,15.782,0,0,0,6.476,2.416,51.067,51.067,0,0,1,2.164-16.391l70.76,22.057a57.464,57.464,0,0,0,8.8,15.075c5.136,6.245,11.018,10.274,17.482,11.973-1.889-6.98-2.714-17.414,1.183-23.854a10.229,10.229,0,0,1,6.7-4.947,39.9,39.9,0,0,1,8.656-.9c8.6,0,18.14,2.318,27.577,6.7a89.608,89.608,0,0,1,27.011,19.514,36.061,36.061,0,0,0-.192-12.286,38.788,38.788,0,0,0-3.688-10.6,41.613,41.613,0,0,0-12.216-14.4c2.222-1.19,6.4-1.873,11.461-1.873a67.749,67.749,0,0,1,12.983,1.324,62.911,62.911,0,0,1,13.853,4.393,33.065,33.065,0,0,0-7.723-14.712,36.777,36.777,0,0,0-11.707-8.393,50.766,50.766,0,0,0-12-3.791,49.911,49.911,0,0,0-8.615-.907c.938-3.467,4.329-7.715,8.852-11.085a32.846,32.846,0,0,1,17.9-6.62,30.265,30.265,0,0,0-10.253-4.972,43.764,43.764,0,0,0-11.7-1.487c-15.47,0-32.269,6.724-40.22,13.052a278.9,278.9,0,0,1-33.524-4.741,127.133,127.133,0,0,1-25-7.564c-8.152-3.628-13.357-7.827-15.47-12.481-.732-1.592-.314-5.033,1.244-10.226a160.633,160.633,0,0,1,5.868-15.691c4.53-10.707,9.471-20.583,9.52-20.682a41.359,41.359,0,0,0,6.865,6.974,29.049,29.049,0,0,0,6.086,3.724,18.248,18.248,0,0,0,7.111,1.761c.157,0,.241-.005.242-.005l0-.006a39.267,39.267,0,0,0,1.056-7.038,32.21,32.21,0,0,0-.237-6.592,19.731,19.731,0,0,0-2.135-6.672,61.869,61.869,0,0,0,11.259,2.893,82.949,82.949,0,0,0,13.481,1.133,52.769,52.769,0,0,0,18.1-2.8c5.743-2.149,9.615-5.435,11.51-9.766-.565.027-1.166.042-1.788.042-10.637,0-26.483-4.236-47.1-12.589-16.492-6.683-36.057-16-58.151-27.7-37.674-19.943-69.953-40.085-70.275-40.286l25.679-28.336,73.923,17.852a33.132,33.132,0,0,0-2.988,16.236,27.927,27.927,0,0,0,7.461,17.839c1.721-15.068,10.174-24.274,23.805-25.924,1.563,5.875,3.656,10.146,6.585,13.441,3.172,3.569,7.462,6.068,13.113,7.64a19.09,19.09,0,0,1-1.559-14.438c.809-2.531,2.174-4.373,3.844-5.187l67.865,2.822c.044,1.051,1.56,6.937,5.611,12.849a33.467,33.467,0,0,0,8.463,8.631,31.44,31.44,0,0,0,13.6,5.273,51.492,51.492,0,0,1-3.415-12.171c-.7-4.44-1.093-10.712,1.022-15.378a10.248,10.248,0,0,1,6.7-5.894A36.522,36.522,0,0,1-77.3,356.02a56.143,56.143,0,0,1,19.772,4.032,100.985,100.985,0,0,1,17.505,8.871,129.522,129.522,0,0,1,17.282,12.9,51.635,51.635,0,0,0-.709-12.541,46.813,46.813,0,0,0-3.376-10.85A42.5,42.5,0,0,0-39,342.62a70.608,70.608,0,0,1,11.587-.822,107.059,107.059,0,0,1,15.989,1.18c5.329.833,9.281,2,11.428,3.389-2.368-8.649-8.077-15.579-16.968-20.6s-18.958-6.981-25.828-7.736c1.369-3.134,5.692-6.345,11.862-8.811a59.7,59.7,0,0,1,21.639-4.04c.643,0,1.292.011,1.927.033-8.195-8.335-19.469-12.56-33.509-12.56a94.288,94.288,0,0,0-26.6,4.234,116.942,116.942,0,0,0-15.324,5.7c-7.795,3.59-17.376,5.411-28.477,5.411-32.3,0-78.582-15.379-133.833-44.473L-186.8,229.4a39.8,39.8,0,0,0,6.991,15.439,49,49,0,0,0,16.985,13.941c-3.95-15.443-3.418-29.532,1.628-43.074,4.613-4.525,14.876-6.138,22.942-6.138,1.07,0,2.114.029,3.1.086-2.654-4.838-9.893-10.792-17.413-12.383l39.613-50.711a44.037,44.037,0,0,0,10.912,4.728,45.632,45.632,0,0,0,12.493,1.79c7.91,0,14.809-2.253,19.952-6.517-14.33-2.289-26.234-15.178-28.305-30.649C-99.25,105.819-97.792,80.267-55.174,61a44.6,44.6,0,0,0-17.347-3.312c-9.745,0-19.314,2.757-25.6,7.374C-98,52.969-90.022,40.694-75.649,30.5c-1.871-.187-3.721-.281-5.5-.281a43.39,43.39,0,0,0-14.428,2.336,36.2,36.2,0,0,0-11.474,6.568,39.27,39.27,0,0,0-8.419,10.139,50.529,50.529,0,0,0-5.263,13.051,39.225,39.225,0,0,1-1.436-9.474,59.782,59.782,0,0,1,.55-9.969,114.6,114.6,0,0,1,4.728-19.717,35,35,0,0,0-17.627,13.566,50.485,50.485,0,0,0-7.476,19.134,80.067,80.067,0,0,0-.284,27.6c-25.305,56.511-67.166,69.447-130.531,89.028-9.485,2.931-19.292,5.962-29.665,9.328a52.652,52.652,0,0,1-16.162,2.824,31.716,31.716,0,0,1-12.017-2.2,25.524,25.524,0,0,1-9.025-6.178c-4.94-5.25-7.882-12.757-8.507-21.711,1.828.133,8.33.564,15.221.564a93.173,93.173,0,0,0,9.664-.414c3.074-.332,5.123-.865,6.091-1.583a11.891,11.891,0,0,0,3.9-5.791,26.516,26.516,0,0,0,1.277-8.028,44.13,44.13,0,0,0-2.7-15.95c-1.882.3-4.456.773-7.436,1.325-9.011,1.669-21.35,3.953-28.878,3.953-.2,0-.4,0-.6-.005-5.144-.075-8.429-1.272-10.041-3.661-1.7-2.521-1.5-6.4.606-11.855a40.773,40.773,0,0,1,6.677-11.068,65.457,65.457,0,0,1,8.574-8.536,76.33,76.33,0,0,1,10.548-7.44l24.609,6.13a35.651,35.651,0,0,0,5.65-6.607,52.27,52.27,0,0,0,4.444-8.23,97.773,97.773,0,0,0,5.955-20.09,5.115,5.115,0,0,1,3.016-3.817c2.53-5.035,3.208-9.838,2.017-14.276a19.477,19.477,0,0,0-5.513-3.68,72.306,72.306,0,0,0-8.354-3.377,167.028,167.028,0,0,0-18.135-4.958c-.136-.38-3.351-9.263-6.175-12.088-4.208-2.1-7.971-2.137-11.954-2.171a33.323,33.323,0,0,1-10.394-1.257C-357.883,9.178-364.9,7-372.082,5.117A183.6,183.6,0,0,0-395.337.486,60.224,60.224,0,0,0-402.861,0,52.957,52.957,0,0,0-424.494,4.6,101.819,101.819,0,0,0-441.628,14.7c-.792.551-1.586,1.108-2.354,1.646-9.579,6.715-18.626,13.058-29.983,13.058-.708,0-1.432-.025-2.15-.075a17.3,17.3,0,0,0,5.581,9.054c2.811,2.475,6.039,3.894,8.857,3.894.123,0,.248,0,.372-.008-10.011,3.349-16.361,7.443-19.982,12.882-3.3,4.958-4.1,10.51-5.017,16.939-.768,5.363-1.639,11.441-4.222,17.976-2.962,7.5-7.73,14.454-14.574,21.276,3.071,2.589,8.725,3.747,12.966,3.747,2.855,0,5.1-.5,6.149-1.364a53.529,53.529,0,0,0-6.693,13.826,27.647,27.647,0,0,0-1.1,11.021c.74,6.653,4.019,12.144,7.491,17.958,7.035,11.781,15.008,25.133,2.972,52.174a12.8,12.8,0,0,0,4.3.635,27.08,27.08,0,0,0,9.024-1.7,15.061,15.061,0,0,0,6.762-4.388,43.2,43.2,0,0,0-3.062,12.064,28.161,28.161,0,0,0,.713,9.58c1.451,5.736,4.6,10.4,7.646,14.909,7.212,10.678,14.025,20.764-.219,43.858a18.582,18.582,0,0,0,7.7,1.6c5.379,0,10.393-2.064,12.776-3.983l-60.548,118.377c-4.71,9.218-14.876,15.175-25.9,15.175a30.172,30.172,0,0,1-12.644-2.749c-5.258-2.4-11.862-7.67-14.627-15.245-2.166-5.932-1.677-12.291,1.451-18.9L-504.9,288.7a62.541,62.541,0,0,0,3.7-9.217,74.271,74.271,0,0,0,2.57-11.063,74.508,74.508,0,0,0,.861-12.353,69.262,69.262,0,0,0-1.427-13.085,63.693,63.693,0,0,0-12.027-26.139c-6.878-8.911-16.336-16.443-28.112-22.386l-98-50.641c-14.916-7.633-21.176-27-13.954-43.171,2.926-6.566,11.62-17.679,25.639-17.679a32.331,32.331,0,0,1,12.755,2.842l3.917,2.021a18.287,18.287,0,0,1,6.347,5.7,17.809,17.809,0,0,1,2.8,7.319,27.787,27.787,0,0,1-1.817,13.923,38.639,38.639,0,0,1-7.8,12.5,41.107,41.107,0,0,0,7.752.78,29.409,29.409,0,0,0,9.825-1.592,23.33,23.33,0,0,0,7.069-3.953,20.555,20.555,0,0,0,4.472-5.078,15.127,15.127,0,0,0,2.032-4.969,54.031,54.031,0,0,0,12.671,6.292,65.712,65.712,0,0,0,9.644,2.654A58.657,58.657,0,0,0-544.86,122.5a51.2,51.2,0,0,0,13.984-1.911,44.212,44.212,0,0,0-3.913-16.809,46.28,46.28,0,0,0-8.062-12.061,55.506,55.506,0,0,0-15.041-11.5,22.811,22.811,0,0,0,5.132-7.36,30.139,30.139,0,0,0,2.771-11.527,26.5,26.5,0,0,0-1.728-10.4,30.025,30.025,0,0,0-6.951-10.456c-3.263,11.888-12.242,24.59-27.66,24.59A37.609,37.609,0,0,1-600.637,61.9a59,59,0,0,0-25.13-5.987,50.14,50.14,0,0,0-17.87,3.3,55.987,55.987,0,0,0-14.589,8.3A62.154,62.154,0,0,0-669.094,78.45a52.063,52.063,0,0,0-6.706,11.2,63.485,63.485,0,0,0-1.977,45.081A57.351,57.351,0,0,0-649.612,167.7l100.624,51.878c12.234,6.625,20.306,16.051,23.342,27.259a42.609,42.609,0,0,1-3.209,29.7l-6.225,12.38a50.68,50.68,0,0,0,.512-12.849,37.433,37.433,0,0,0-2.659-10.786c-2.583-6.2-6.887-11.64-13.157-16.616-11.7-9.284-28.338-15.467-45.955-22.013-28.468-10.577-57.9-21.515-70.705-46.917a134.159,134.159,0,0,0,.307,22.291,89.358,89.358,0,0,0,3.692,18.07,68.111,68.111,0,0,0,6.524,14.426,63.416,63.416,0,0,0,8.8,11.358c5.818,5.972,13.089,11.146,22.228,15.818a247.216,247.216,0,0,0,24.7,10.463c14.888,5.673,28.949,11.032,37.148,20.726,9.12,10.783,10.012,25.735,2.808,47.055a36.186,36.186,0,0,0,.15-9.035,26.192,26.192,0,0,0-2.01-7.487,28.207,28.207,0,0,0-9.356-11.246c-8.229-6.146-19.807-9.952-32.065-13.981-19.212-6.316-39.077-12.847-48.486-29.173a116.072,116.072,0,0,0,1.241,16.675,79.208,79.208,0,0,0,3.249,13.548,59.75,59.75,0,0,0,4.914,10.843,52.6,52.6,0,0,0,6.235,8.56A61.032,61.032,0,0,0-621.9,330.6a158.461,158.461,0,0,0,16.229,7.89c4.56,2,8.865,3.893,12.724,6.064a35.4,35.4,0,0,1,9.858,7.664c5.8,6.771,7.157,15.845,4.264,28.555-3.628-14.685-15.265-17.186-27.586-19.833-10.572-2.272-21.5-4.621-28.586-14.677a72.785,72.785,0,0,0,4.634,19.992,35.476,35.476,0,0,0,7.824,12.034c6.034,5.956,13.539,8.392,20.8,10.749,4.937,1.6,10.042,3.26,14.527,6.011a29.218,29.218,0,0,1,6.28,5.114,30.943,30.943,0,0,1,5.148,7.66,51.985,51.985,0,0,0,11.057,16.984,54.852,54.852,0,0,0,17,11.786,56.734,56.734,0,0,0,11.534,3.741,57.613,57.613,0,0,0,11.785,1.217,58.385,58.385,0,0,0,19.351-3.294,56.683,56.683,0,0,0,17-9.446c-1.464,7.29-7.178,15.975-16.986,25.811-8.652,8.677-20.4,18.082-33.972,27.2-26.1,17.531-55.354,31.65-72.787,35.133a23.49,23.49,0,0,0,5.862,5.666,28.277,28.277,0,0,0,7.039,3.4,47.8,47.8,0,0,0,15.026,2.089c3.879,0,7.372-.3,10.179-.54.958-.082,1.786-.153,2.526-.2-3.246,5.781-10.6,11.128-18.723,13.619a17.133,17.133,0,0,0,7.562,5.153,25.144,25.144,0,0,0,8.365,1.271,58.2,58.2,0,0,0,8.239-.719h.006c.91-.127,1.7-.237,2.358-.3l16.169,34.8c-1.71.844-4.816,3.612-7.9,7.888a43.493,43.493,0,0,0-7.245,15.824,31.755,31.755,0,0,0-.139,13.405,33.2,33.2,0,0,0,6.944,14.1c.577-5.178,2.409-9.478,5.3-12.434a13.356,13.356,0,0,1,9.581-4.137,14.124,14.124,0,0,1,8.044,2.6,19.063,19.063,0,0,1,6.3,7.779l17.728,38.352a43.685,43.685,0,0,1,8.4-.747C-492.309,663.815-465.71,665.775-453.475,691ZM-346.8,26.786a23.154,23.154,0,0,1,4.477.429c3.19.626,5.422,1.938,6.634,3.9a7.7,7.7,0,0,1,.765,5.816l0,.015a20.449,20.449,0,0,1-7.479,3.722,32.9,32.9,0,0,1-8.85,1.134,41.191,41.191,0,0,1-12.788-2.046c-3.9-1.311-6.944-3.12-8.572-5.095,2.155-.74,4.37-1.671,6.716-2.657l.006,0c2.989-1.257,6.079-2.556,9.272-3.546A33.1,33.1,0,0,1-346.8,26.786Zm68.706,98.86h.007a72.588,72.588,0,0,0,36.337-9.915A55.926,55.926,0,0,0-229.366,106a28.364,28.364,0,0,0,6.579-10.556,122.1,122.1,0,0,1-12.824,6.229,109.782,109.782,0,0,1-13.166,4.5,104.7,104.7,0,0,1-13.558,2.731,106.537,106.537,0,0,1-14,.919,122.949,122.949,0,0,1-28.413-3.485,172.861,172.861,0,0,1-30.623-10.654C-315.831,120.447-293.441,125.645-278.1,125.645Z" transform="translate(680.998 0)" fill="#b8d1e4" opacity="0.5"/>
      </g>
      <g id="Lyon-2" data-name="Lyon" transform="translate(996.002 22)" opacity="0.5">
        <path id="Fill_1-2" data-name="Fill 1" d="M227.523,0h0V0c4.784,7.033,6.455,14.133,4.966,21.1a31.466,31.466,0,0,1-7.722,14.266,55.668,55.668,0,0,1-12.078,9.942,34.237,34.237,0,0,0,5.815.5,41.309,41.309,0,0,0,15.184-3.084,61.71,61.71,0,0,0,12.439-6.784,72.374,72.374,0,0,0,11.5-9.868,32.006,32.006,0,0,1-.565,16.325,31.825,31.825,0,0,1-7.2,12.1,45.889,45.889,0,0,1-10.43,8.232,56.229,56.229,0,0,1-10.253,4.711,64.223,64.223,0,0,0,11.456,3.083,81.7,81.7,0,0,0,14.428,1.3,64.712,64.712,0,0,0,17.157-2.167,27.5,27.5,0,0,1-7.828,11.821,38.787,38.787,0,0,1-12.551,7.24,72.519,72.519,0,0,1-15.52,3.63,130.1,130.1,0,0,1-16.736.994c-6.795,0-14.283-.412-22.892-1.259-3.229,13.377-5.991,25.219-7.074,34.651-1.1,9.614-.449,16.369,2.121,21.9a25.5,25.5,0,0,0,5.758,7.86,45.364,45.364,0,0,0,9.556,6.7c7.089,3.871,16.811,7.647,32.508,12.626a27.467,27.467,0,0,1,1.436-6.894,34.231,34.231,0,0,1,2.882-6.27,25.946,25.946,0,0,1,7.454-8.458,59.23,59.23,0,0,0,4.826,14.686,42.314,42.314,0,0,0,6.944,10.439,40.036,40.036,0,0,0,9.309.881,80.483,80.483,0,0,0,15.924-1.69,101.189,101.189,0,0,0,20.649-6.635,29.376,29.376,0,0,1-6.5,11.35,63.587,63.587,0,0,1-10.026,9.1,95.074,95.074,0,0,1-13.241,8.247l24.971,36.458c1.171-.348,3.139-.839,5.632-1.46l.022-.005c8.1-2.018,21.662-5.4,33.31-10.141a63.9,63.9,0,0,0,15.024-8.118c4.174-3.272,6.3-6.669,6.319-10.095.035-6.387-3.809-22.379-9.794-40.74-6.339-19.449-13.423-36.622-18.952-45.94a29.477,29.477,0,0,1,4.888-.414,29.841,29.841,0,0,1,12.19,2.664,39.065,39.065,0,0,1,9.218,5.861,45.387,45.387,0,0,1,7.869,8.525c.323-3.846,2.583-8.492,6.044-12.428a26.14,26.14,0,0,1,5.693-4.905,15.782,15.782,0,0,1,6.476-2.416,51.067,51.067,0,0,0,2.164,16.391l70.76-22.057a57.464,57.464,0,0,1,8.8-15.075c5.136-6.245,11.018-10.274,17.482-11.973-1.889,6.98-2.714,17.414,1.183,23.854a10.228,10.228,0,0,0,6.7,4.947,39.9,39.9,0,0,0,8.656.9c8.6,0,18.14-2.318,27.577-6.7a89.608,89.608,0,0,0,27.011-19.514,36.061,36.061,0,0,1-.192,12.286,38.788,38.788,0,0,1-3.688,10.6,41.613,41.613,0,0,1-12.216,14.4c2.222,1.19,6.4,1.873,11.461,1.873a67.749,67.749,0,0,0,12.983-1.324,62.911,62.911,0,0,0,13.853-4.393,33.066,33.066,0,0,1-7.723,14.712,36.777,36.777,0,0,1-11.707,8.393,50.766,50.766,0,0,1-12,3.791,49.912,49.912,0,0,1-8.615.907c.938,3.467,4.329,7.715,8.852,11.085a32.846,32.846,0,0,0,17.9,6.62,30.265,30.265,0,0,1-10.253,4.972,43.763,43.763,0,0,1-11.7,1.487c-15.471,0-32.269-6.724-40.22-13.052a278.9,278.9,0,0,0-33.524,4.741,127.133,127.133,0,0,0-25,7.564c-8.152,3.628-13.357,7.827-15.47,12.481-.732,1.592-.314,5.033,1.244,10.226a160.626,160.626,0,0,0,5.868,15.691c4.529,10.707,9.47,20.583,9.52,20.682a41.359,41.359,0,0,1,6.865-6.974,29.048,29.048,0,0,1,6.086-3.724,18.248,18.248,0,0,1,7.111-1.761c.157,0,.241.005.241.005l0,.006a39.27,39.27,0,0,1,1.056,7.038,32.209,32.209,0,0,1-.237,6.592,19.731,19.731,0,0,1-2.135,6.672,61.87,61.87,0,0,1,11.259-2.893,82.949,82.949,0,0,1,13.481-1.133,52.769,52.769,0,0,1,18.1,2.8c5.743,2.149,9.615,5.435,11.51,9.766-.565-.027-1.166-.042-1.788-.042-10.637,0-26.483,4.236-47.1,12.589-16.492,6.683-36.057,16-58.151,27.7-37.674,19.943-69.953,40.085-70.275,40.286l25.679,28.336,73.923-17.852a33.132,33.132,0,0,1-2.988-16.236,27.926,27.926,0,0,1,7.461-17.839c1.721,15.068,10.174,24.274,23.805,25.924,1.563-5.875,3.656-10.146,6.585-13.441,3.172-3.569,7.462-6.068,13.113-7.64a19.091,19.091,0,0,0-1.559,14.438c.809,2.531,2.174,4.373,3.844,5.187l67.865-2.822c.044-1.051,1.56-6.937,5.611-12.849a33.467,33.467,0,0,1,8.463-8.631,31.44,31.44,0,0,1,13.6-5.273,51.49,51.49,0,0,0-3.416,12.171c-.7,4.44-1.093,10.712,1.022,15.378a10.248,10.248,0,0,0,6.7,5.894,36.522,36.522,0,0,0,10.146,1.386,56.143,56.143,0,0,0,19.772-4.032,100.986,100.986,0,0,0,17.505-8.871,129.522,129.522,0,0,0,17.282-12.9,51.635,51.635,0,0,1-.709,12.541,46.813,46.813,0,0,1-3.376,10.85,42.5,42.5,0,0,1-12.181,15.814,70.608,70.608,0,0,0,11.587.822,107.059,107.059,0,0,0,15.989-1.18c5.329-.833,9.281-2,11.428-3.389-2.368,8.649-8.077,15.579-16.968,20.6s-18.958,6.981-25.828,7.736c1.369,3.134,5.692,6.345,11.862,8.811a59.7,59.7,0,0,0,21.639,4.04c.643,0,1.292-.011,1.927-.033-8.195,8.335-19.469,12.56-33.509,12.56a94.288,94.288,0,0,1-26.6-4.234,116.941,116.941,0,0,1-15.324-5.7c-7.795-3.59-17.376-5.411-28.477-5.411-32.3,0-78.582,15.379-133.833,44.473L494.2,461.6a39.8,39.8,0,0,1,6.991-15.439,49,49,0,0,1,16.985-13.941c-3.95,15.443-3.418,29.532,1.628,43.074,4.613,4.525,14.876,6.138,22.942,6.138,1.07,0,2.114-.029,3.1-.086-2.654,4.838-9.893,10.792-17.413,12.383l39.613,50.711a44.039,44.039,0,0,1,10.912-4.728,45.633,45.633,0,0,1,12.492-1.79c7.91,0,14.809,2.253,19.952,6.517-14.33,2.289-26.234,15.178-28.3,30.649-1.351,10.092.107,35.644,42.726,54.912a44.6,44.6,0,0,1-17.347,3.312c-9.745,0-19.314-2.757-25.6-7.374.116,12.092,8.1,24.367,22.468,34.561-1.871.187-3.721.281-5.5.281a43.389,43.389,0,0,1-14.428-2.336,36.2,36.2,0,0,1-11.474-6.568,39.27,39.27,0,0,1-8.419-10.139,50.532,50.532,0,0,1-5.263-13.051,39.221,39.221,0,0,0-1.436,9.474,59.783,59.783,0,0,0,.55,9.969,114.594,114.594,0,0,0,4.728,19.717,35,35,0,0,1-17.628-13.566A50.484,50.484,0,0,1,539,635.146a80.067,80.067,0,0,1-.284-27.6c-25.305-56.511-67.166-69.447-130.531-89.028-9.485-2.931-19.292-5.962-29.665-9.328a52.652,52.652,0,0,0-16.162-2.824,31.715,31.715,0,0,0-12.017,2.2,25.523,25.523,0,0,0-9.025,6.177c-4.94,5.25-7.882,12.757-8.507,21.711,1.828-.133,8.33-.564,15.221-.564a93.162,93.162,0,0,1,9.664.415c3.074.332,5.123.865,6.091,1.583a11.89,11.89,0,0,1,3.9,5.791,26.516,26.516,0,0,1,1.277,8.028,44.13,44.13,0,0,1-2.7,15.95c-1.882-.3-4.456-.773-7.436-1.325-9.011-1.669-21.35-3.954-28.878-3.954-.2,0-.4,0-.6.005-5.144.075-8.429,1.272-10.041,3.661-1.7,2.521-1.5,6.4.606,11.855a40.774,40.774,0,0,0,6.677,11.069,65.46,65.46,0,0,0,8.574,8.536,76.327,76.327,0,0,0,10.548,7.44l24.609-6.13a35.652,35.652,0,0,1,5.65,6.607,52.268,52.268,0,0,1,4.444,8.23,97.772,97.772,0,0,1,5.955,20.09,5.115,5.115,0,0,0,3.016,3.817c2.53,5.036,3.208,9.838,2.017,14.276a19.477,19.477,0,0,1-5.513,3.68,72.3,72.3,0,0,1-8.354,3.377,167.026,167.026,0,0,1-18.135,4.958c-.136.38-3.351,9.263-6.175,12.088-4.208,2.1-7.971,2.137-11.954,2.172a33.321,33.321,0,0,0-10.394,1.257c-7.776,2.451-14.8,4.633-21.975,6.512a183.6,183.6,0,0,1-23.255,4.631,60.226,60.226,0,0,1-7.525.486,52.957,52.957,0,0,1-21.633-4.595A101.818,101.818,0,0,1,239.37,676.3c-.792-.551-1.586-1.108-2.354-1.646-9.579-6.716-18.626-13.058-29.983-13.058-.708,0-1.432.025-2.15.075a17.3,17.3,0,0,1,5.581-9.054c2.811-2.475,6.039-3.894,8.857-3.894.123,0,.248,0,.372.009-10.011-3.349-16.361-7.443-19.982-12.882-3.3-4.958-4.1-10.51-5.017-16.939-.768-5.363-1.639-11.441-4.222-17.976-2.962-7.5-7.73-14.454-14.574-21.276,3.071-2.589,8.725-3.747,12.966-3.747,2.855,0,5.1.5,6.149,1.364a53.529,53.529,0,0,1-6.693-13.826,27.647,27.647,0,0,1-1.1-11.021c.74-6.653,4.019-12.144,7.491-17.958,7.035-11.781,15.008-25.133,2.972-52.173a12.8,12.8,0,0,1,4.3-.635,27.08,27.08,0,0,1,9.024,1.7,15.061,15.061,0,0,1,6.762,4.388,43.2,43.2,0,0,1-3.062-12.065,28.161,28.161,0,0,1,.713-9.58c1.451-5.736,4.6-10.4,7.646-14.909,7.212-10.678,14.025-20.764-.219-43.858a18.582,18.582,0,0,1,7.7-1.6c5.379,0,10.393,2.064,12.776,3.983L182.781,291.345c-4.71-9.218-14.876-15.175-25.9-15.175a30.172,30.172,0,0,0-12.644,2.749c-5.258,2.4-11.862,7.67-14.627,15.245-2.166,5.932-1.677,12.291,1.451,18.9L176.1,402.3a62.541,62.541,0,0,1,3.7,9.217,74.867,74.867,0,0,1,3.431,23.416,69.262,69.262,0,0,1-1.427,13.085,63.693,63.693,0,0,1-12.027,26.139c-6.878,8.911-16.336,16.443-28.112,22.386l-98,50.641c-14.916,7.634-21.176,27-13.954,43.171,2.926,6.566,11.62,17.679,25.639,17.679A32.331,32.331,0,0,0,68.105,605.2l3.917-2.021a18.287,18.287,0,0,0,6.347-5.7,17.809,17.809,0,0,0,2.8-7.319,27.787,27.787,0,0,0-1.817-13.923,38.639,38.639,0,0,0-7.8-12.5,41.11,41.11,0,0,1,7.752-.78,29.409,29.409,0,0,1,9.825,1.592,23.33,23.33,0,0,1,7.069,3.953,20.555,20.555,0,0,1,4.472,5.078,15.127,15.127,0,0,1,2.032,4.969,54.031,54.031,0,0,1,12.671-6.292,65.711,65.711,0,0,1,9.644-2.654,58.659,58.659,0,0,1,11.113-1.091,51.2,51.2,0,0,1,13.984,1.911,44.211,44.211,0,0,1-3.913,16.809,46.281,46.281,0,0,1-8.062,12.061,55.507,55.507,0,0,1-15.041,11.5,22.81,22.81,0,0,1,5.132,7.36,30.139,30.139,0,0,1,2.771,11.527,26.5,26.5,0,0,1-1.728,10.4,30.025,30.025,0,0,1-6.951,10.456c-3.263-11.888-12.242-24.59-27.66-24.59A37.61,37.61,0,0,0,80.361,629.1a59,59,0,0,1-25.13,5.987,50.141,50.141,0,0,1-17.87-3.295,55.988,55.988,0,0,1-14.589-8.3A62.155,62.155,0,0,1,11.9,612.55a52.062,52.062,0,0,1-6.706-11.2A63.485,63.485,0,0,1,3.222,556.27,57.351,57.351,0,0,1,31.386,523.3L132.01,471.425c12.234-6.625,20.306-16.051,23.342-27.259a42.609,42.609,0,0,0-3.209-29.7l-6.225-12.38a50.68,50.68,0,0,1,.512,12.849,37.433,37.433,0,0,1-2.659,10.786c-2.583,6.2-6.887,11.64-13.157,16.616-11.7,9.284-28.338,15.467-45.955,22.013-28.468,10.578-57.9,21.515-70.705,46.917a134.159,134.159,0,0,1,.307-22.291,89.358,89.358,0,0,1,3.692-18.07,68.111,68.111,0,0,1,6.524-14.426,63.416,63.416,0,0,1,8.8-11.358c5.818-5.972,13.089-11.146,22.228-15.818a247.216,247.216,0,0,1,24.7-10.463c14.888-5.673,28.949-11.032,37.148-20.726,9.12-10.783,10.012-25.735,2.808-47.055a36.186,36.186,0,0,1,.15,9.035,26.192,26.192,0,0,1-2.01,7.487,28.207,28.207,0,0,1-9.356,11.246c-8.229,6.146-19.807,9.952-32.065,13.981-19.212,6.316-39.077,12.847-48.486,29.173a116.072,116.072,0,0,1,1.241-16.675,79.208,79.208,0,0,1,3.249-13.548A59.75,59.75,0,0,1,37.8,380.915a52.6,52.6,0,0,1,6.235-8.56A61.032,61.032,0,0,1,59.1,360.4a158.461,158.461,0,0,1,16.229-7.89c4.56-2,8.865-3.893,12.724-6.064a35.4,35.4,0,0,0,9.858-7.664c5.8-6.771,7.157-15.845,4.264-28.555-3.628,14.685-15.265,17.186-27.586,19.833-10.572,2.272-21.5,4.621-28.586,14.677a72.785,72.785,0,0,1,4.634-19.992,35.476,35.476,0,0,1,7.824-12.034c6.034-5.956,13.539-8.392,20.8-10.749,4.937-1.6,10.042-3.26,14.527-6.011a29.218,29.218,0,0,0,6.28-5.114,30.943,30.943,0,0,0,5.148-7.66,51.985,51.985,0,0,1,11.057-16.984,54.852,54.852,0,0,1,17-11.786,56.734,56.734,0,0,1,11.534-3.741,57.613,57.613,0,0,1,11.785-1.217,58.385,58.385,0,0,1,19.351,3.294,56.683,56.683,0,0,1,17,9.446c-1.464-7.29-7.178-15.975-16.986-25.811-8.652-8.677-20.4-18.082-33.972-27.2-26.1-17.531-55.354-31.65-72.787-35.133a23.49,23.49,0,0,1,5.862-5.666,28.277,28.277,0,0,1,7.039-3.4,47.8,47.8,0,0,1,15.026-2.089c3.879,0,7.372.3,10.179.54.958.082,1.786.153,2.526.2-3.246-5.781-10.6-11.128-18.723-13.619a17.133,17.133,0,0,1,7.562-5.153,25.144,25.144,0,0,1,8.365-1.271,58.2,58.2,0,0,1,8.239.719h.006c.91.127,1.7.237,2.358.3l16.169-34.8c-1.71-.844-4.816-3.612-7.9-7.888A43.493,43.493,0,0,1,118.664,86.1a31.755,31.755,0,0,1-.139-13.405,33.2,33.2,0,0,1,6.944-14.1c.577,5.178,2.409,9.478,5.3,12.434a13.356,13.356,0,0,0,9.581,4.137,14.124,14.124,0,0,0,8.044-2.6,19.063,19.063,0,0,0,6.3-7.779l17.728-38.352a43.685,43.685,0,0,0,8.4.747C188.689,27.185,215.288,25.225,227.523,0Zm106.67,664.214a23.155,23.155,0,0,0,4.477-.429c3.19-.626,5.422-1.938,6.634-3.9a7.7,7.7,0,0,0,.765-5.816l0-.015a20.449,20.449,0,0,0-7.479-3.723,32.9,32.9,0,0,0-8.85-1.134,41.191,41.191,0,0,0-12.788,2.046c-3.9,1.311-6.944,3.12-8.572,5.095,2.155.74,4.37,1.671,6.716,2.657l.006,0c2.989,1.257,6.079,2.556,9.272,3.546A33.1,33.1,0,0,0,334.194,664.214ZM402.9,565.355h.007a72.588,72.588,0,0,1,36.337,9.915A55.927,55.927,0,0,1,451.632,585a28.363,28.363,0,0,1,6.579,10.556,122.1,122.1,0,0,0-12.824-6.229,109.775,109.775,0,0,0-13.166-4.5,104.68,104.68,0,0,0-13.558-2.731,106.536,106.536,0,0,0-14-.919,122.951,122.951,0,0,0-28.413,3.485,172.863,172.863,0,0,0-30.623,10.654C365.167,570.553,387.557,565.355,402.9,565.355Z" transform="translate(680.998 691) rotate(180)" fill="#b8d1e4" opacity="0.5"/>
      </g>
    </g>
  </g>
</svg>
