<svg id="Composant_1240_275" data-name="Composant 1240 – 275" xmlns="http://www.w3.org/2000/svg" width="40" height="40" viewBox="0 0 40 40">
  <path id="Tracé_1837" data-name="Tracé 1837" d="M34.142,5.858A20,20,0,0,0,2.679,30L0,40l10-2.679A20,20,0,0,0,34.142,5.858ZM20,37.656a17.617,17.617,0,0,1-9.216-2.594l-.429-.263-7.04,1.886L5.2,29.645l-.263-.429A17.658,17.658,0,1,1,20,37.656Z" fill="#dc0017"/>
  <rect id="Rectangle_1218" data-name="Rectangle 1218" width="2.344" height="2.344" transform="translate(18.828 27.617)" fill="#dc0017"/>
  <path id="Tracé_1838" data-name="Tracé 1838" d="M186.859,128.5A5.866,5.866,0,0,0,181,134.359h2.344a3.516,3.516,0,1,1,6.135,2.343l-3.792,4.24v2.791h2.344v-1.9l3.195-3.573a5.859,5.859,0,0,0-4.367-9.766Z" transform="translate(-166.859 -118.461)" fill="#dc0017"/>
</svg>
