<svg xmlns="http://www.w3.org/2000/svg" width="25.974" height="30.258" viewBox="0 0 25.974 30.258">
  <g id="icon_ol" transform="translate(0.1 0.1)">
    <path id="Bord" d="M25.771-.083H0L0,21.971a4.231,4.231,0,0,0,1.078,3.117,4.379,4.379,0,0,0,3.09,1.079c3.861.108,6.294.967,8.2,3.118l.517.632.517-.632c1.908-2.151,4.341-3.01,8.2-3.118A4.38,4.38,0,0,0,24.7,25.087a4.232,4.232,0,0,0,1.078-3.117ZM.671.588H25.1V9.31H.67ZM21.607,25.482c-4.033.13-6.8,1.047-8.72,3.268C10.964,26.53,8.2,25.613,4.168,25.482c-2.316-.073-3.5-1.152-3.5-3.512V9.981H25.1l0,11.99C25.106,24.33,23.922,25.409,21.607,25.482Z" transform="translate(0 0.083)" fill="#dc0017" stroke="#dc0017" stroke-width="0.2"/>
    <path id="L" d="M65.135,45.225H60.908V57.257h7.644V53.43H65.135Zm2.9,8.727v2.783h-6.6V45.747h3.187v8.205Z" transform="translate(-45.125 -33.441)" fill="#dc0017" stroke="#dc0017" stroke-width="0.2"/>
    <path id="ROND" d="M13.513,44.1A6.309,6.309,0,1,0,19.8,50.408,6.3,6.3,0,0,0,13.513,44.1Zm0,12.064a5.755,5.755,0,1,1,5.734-5.755A5.751,5.751,0,0,1,13.513,56.164Z" transform="translate(-5.355 -32.609)" fill="#dc0017" stroke="#dc0017" stroke-width="0.2"/>
    <path id="LANGUE" d="M26.009,56.369a1.6,1.6,0,0,1-1.535,0A.917.917,0,0,0,26.009,56.369Z" transform="translate(-18.132 -41.684)" fill="#dc0017" stroke="#dc0017" stroke-width="0.2"/>
    <path id="LION" d="M20.942,52.193a.4.4,0,0,1-.572-.293.384.384,0,0,0-.011.544A.665.665,0,0,0,19.99,53a.823.823,0,0,0,.647-.111c.018.095.148.256.424.2-.143-.152-.21-.426-.006-.54l.053-.028a.387.387,0,0,1,.524.2.458.458,0,0,1-.19.591l-1.336.693a.945.945,0,0,0-.47,1.29l.614,1.221a.341.341,0,0,1-.18.468.4.4,0,0,1-.526-.17l-.826-1.62a.3.3,0,0,0,.279.033c-.363-.59.28-.567.069-1.1a.3.3,0,0,0,.274.074c-.323-.73.408-.722.037-1.3a.288.288,0,0,0,.261-.033c-.453-.454-.046-.76-.6-.945a.231.231,0,0,0,.2-.177c-.379.026-.559-.464-1.1-.394a3.437,3.437,0,0,0-.616.152c-.114.036-.2-.006-.3.047a.636.636,0,0,0-.084.165,1.154,1.154,0,0,0-.436.164.274.274,0,0,0,.027.2.07.07,0,0,1,.041.052.868.868,0,0,0,.219.478l.336-.084a.876.876,0,0,1,.352.37c.05.129.029.21-.129.212a3.709,3.709,0,0,1-.5-.072c-.044.114-.065.332.034.407a1.239,1.239,0,0,0,.422.02c-.022.309-.243.5-.623.373-1.089-.355-1.788-.458-2.184-1.346.015-.062.09-.67-.346-.825a.97.97,0,0,1,.052.536.54.54,0,0,0-.614-.435.626.626,0,0,1,.306.473.645.645,0,0,0-.585-.055c.9.409.595,1.107.2,1.171a.538.538,0,0,0,.591,0l.541.694a.389.389,0,0,0-.238.169.544.544,0,0,1,.355.083.95.95,0,0,1,.022.589.584.584,0,0,0,.327-.4l.8.467c-.4.212-1.6.818-2.214.534-.093-.043-.7-.3-1.028.036a.575.575,0,0,1,.484.175.628.628,0,0,0-.584.388,1.086,1.086,0,0,1,.532-.051.627.627,0,0,0-.222.537s.485-.45.882-.334c.185.054.1.379.059.457a.467.467,0,0,0,.377-.366l.926-.039c.062.03.088.163.031.269a.355.355,0,0,0,.268-.289.36.36,0,0,1,.324.354.431.431,0,0,0,.061-.466L17,55.913l.35.388a8.218,8.218,0,0,1-2.418,1.1c.1.218.537.194.742.117a.434.434,0,0,0-.018.278.362.362,0,0,0,.277-.17s.271.542.227.638c-.127.279-1.009.339-1.009.339a.81.81,0,0,0-.848-.09.424.424,0,0,1,.365.242.552.552,0,0,0-.546.381.762.762,0,0,1,.522-.052.545.545,0,0,0-.22.51,1.009,1.009,0,0,1,.862-.347c.141.031.148.243.108.394a.6.6,0,0,0,.358-.37l.965-.3a.692.692,0,0,1,.029.224.336.336,0,0,0,.249-.27.51.51,0,0,0,.466.228,4.047,4.047,0,0,1-.392-1.186c0-.234.7-.373.822-.408l.341.5s-.346.17-.406.392a1.088,1.088,0,0,1,.626-.1.712.712,0,0,1,.16.344.429.429,0,0,0,.161-.3c.771.246.772.364.584,1.146-.35-.034-.909-.052-1.03.307a1.025,1.025,0,0,1,.587.03.507.507,0,0,0-.388.566.777.777,0,0,1,.613-.263c-.176.109-.4.336-.2.62a.708.708,0,0,1,.751-.362l.242-.525c.1-.213.369-.186.4.085a.5.5,0,0,0-.114-.7l.221-.476c.071.007.254.054.362-.074a.451.451,0,0,1-.256-.186c.113.008.412.054.554-.142-.481-.1-1.6-.783-1.687-1.207a.787.787,0,0,0,.814.107.726.726,0,0,0,.382-.394c.2-.413.726-.078.807-.842-.21.3-.674.1-.766.473-.186-.823,1-.286,1.006-1.53-.292.509-1.337.327-1.251.971-.448-1.329,1.558-.468,1.449-2.192-.392.779-1.947.573-1.8,1.494l-.085-.169a.568.568,0,0,1,.274-.779l1.372-.71a.827.827,0,0,0,.357-1.068A.751.751,0,0,0,20.942,52.193Zm-3.623-.342s-.033-.107.1-.133a.81.81,0,0,1,.413.1A.451.451,0,0,1,17.318,51.851Z" transform="translate(-9.447 -37.97)" fill="#dc0017"/>
    <path id="O" d="M28.383,20.536a1.182,1.182,0,0,0-.867.341c-.323.314-.314.7-.314,1.239s-.009.925.314,1.24a1.27,1.27,0,0,0,1.729,0c.323-.315.319-.7.319-1.24s0-.925-.319-1.239A1.173,1.173,0,0,0,28.383,20.536Zm.4,2.453a.526.526,0,0,1-.4.166.535.535,0,0,1-.4-.166c-.121-.131-.153-.275-.153-.873s.032-.742.153-.873a.535.535,0,0,1,.4-.165.526.526,0,0,1,.4.165c.121.131.157.275.157.873S28.9,22.858,28.782,22.989Z" transform="translate(-20.153 -15.173)" fill="#dc0017" stroke="#dc0017" stroke-width="0.2"/>
    <path id="L-2" data-name="L" d="M9.149,23.2V20.671l-.033-.033H8.559l-.033.033v3.04l.033.033h1.928l.033-.033v-.475l-.032-.033Z" transform="translate(-6.316 -15.248)" fill="#dc0017" stroke="#dc0017" stroke-width="0.2"/>
    <path id="Y" d="M17.647,20.637l-.588,1.253-.6-1.253h-.645l-.022.022.949,1.811v1.241l.033.033h.553l.033-.033V22.471l.943-1.8-.033-.033Z" transform="translate(-11.702 -15.248)" fill="#dc0017" stroke="#dc0017" stroke-width="0.2"/>
    <path id="N" d="M41.657,20.637l-.033.033V22.54l-1.266-1.9h-.524l-.033.033v3.04l.033.033h.558l.033-.033V21.837l1.266,1.907h.523l.033-.033v-3.04l-.033-.033Z" transform="translate(-29.487 -15.248)" fill="#dc0017" stroke="#dc0017" stroke-width="0.2"/>
    <path id="A" d="M66.478,20.637H66.03L66,20.67,64.856,23.72l.024.024H65.5l.193-.55h1.136l.189.55h.618l.025-.024-1.146-3.05Zm-.612,2.047.4-1.13.391,1.13Z" transform="translate(-48.05 -15.248)" fill="#dc0017" stroke="#dc0017" stroke-width="0.2"/>
    <path id="I" d="M77.9,20.637l-.033.033v3.041l.033.033h.557l.033-.033v-3.04l-.033-.033Z" transform="translate(-57.691 -15.248)" fill="#dc0017" stroke="#dc0017" stroke-width="0.2"/>
    <path id="N-2" data-name="N" d="M55,20.637l-.034.033V22.54l-1.266-1.9h-.523l-.033.033v3.04l.033.033h.557l.033-.033V21.837l1.266,1.907h.523l.033-.033v-3.04l-.033-.033Z" transform="translate(-39.372 -15.248)" fill="#dc0017" stroke="#dc0017" stroke-width="0.2"/>
    <path id="S" d="M84.582,21.854l-.377-.052a.557.557,0,0,1-.3-.123.3.3,0,0,1-.094-.222c0-.214.161-.393.494-.393a.921.921,0,0,1,.632.195l.046,0,.349-.336v-.042a1.4,1.4,0,0,0-1.009-.343c-.692,0-1.114.388-1.114.943a.811.811,0,0,0,.229.611,1.1,1.1,0,0,0,.62.257l.386.052a.483.483,0,0,1,.283.109.344.344,0,0,1,.1.262c0,.249-.2.384-.566.384a1.082,1.082,0,0,1-.749-.241l-.047,0-.356.346v.047a1.537,1.537,0,0,0,1.143.387c.669,0,1.185-.34,1.185-.942a.857.857,0,0,0-.247-.66A1.074,1.074,0,0,0,84.582,21.854Z" transform="translate(-61.575 -15.173)" fill="#dc0017" stroke="#dc0017" stroke-width="0.2"/>
    <path id="O-2" data-name="O" d="M8.971,9.384a1.1,1.1,0,0,0,.82-.334c.308-.309.3-.691.3-1.218s0-.91-.3-1.218a1.178,1.178,0,0,0-1.645,0c-.308.309-.3.691-.3,1.218s-.009.909.3,1.218A1.108,1.108,0,0,0,8.971,9.384Zm-.385-2.41a.5.5,0,0,1,.385-.163.492.492,0,0,1,.38.163c.116.129.15.27.15.858s-.034.729-.15.858a.492.492,0,0,1-.38.163.5.5,0,0,1-.385-.163c-.115-.128-.145-.27-.145-.858S8.471,7.1,8.586,6.974Z" transform="translate(-5.814 -4.624)" fill="#dc0017" stroke="#dc0017" stroke-width="0.2"/>
    <path id="Q" d="M63.917,9.217l.245.247h.047l.265-.266V9.15l-.237-.238a1.851,1.851,0,0,0,.188-1.08c0-.528,0-.91-.3-1.218a1.1,1.1,0,0,0-.82-.335,1.11,1.11,0,0,0-.825.335c-.307.309-.3.691-.3,1.218s-.009.909.3,1.218a1.2,1.2,0,0,0,1.44.167ZM62.772,7.832c0-.588.03-.729.145-.858a.5.5,0,0,1,.385-.163.493.493,0,0,1,.38.163c.115.129.15.27.15.858a1.984,1.984,0,0,1-.055.617l-.227-.227-.316.313L63.5,8.8a.34.34,0,0,1-.2.055.5.5,0,0,1-.385-.163C62.8,8.561,62.772,8.419,62.772,7.832Z" transform="translate(-46.066 -4.624)" fill="#dc0017" stroke="#dc0017" stroke-width="0.2"/>
    <path id="L-3" data-name="L" d="M19.2,8.9V6.412l-.033-.034h-.527l-.033.034V9.4l.033.033h1.775l.033-.033V8.934L20.416,8.9Z" transform="translate(-13.786 -4.698)" fill="#dc0017" stroke="#dc0017" stroke-width="0.2"/>
    <path id="Y-2" data-name="Y" d="M25.28,9.4l.033.033h.523L25.87,9.4V8.18l.9-1.768-.034-.033h-.595l-.56,1.231-.569-1.231h-.6l-.033.033.9,1.768Z" transform="translate(-18.064 -4.698)" fill="#dc0017" stroke="#dc0017" stroke-width="0.2"/>
    <path id="M" d="M37.2,7.652V9.4l.033.033h.527L37.8,9.4V6.412l-.033-.034h-.552l-.79,1.651-.8-1.651h-.552l-.033.033V9.4l.033.033H35.6l.033-.033V7.652l.585,1.158h.4Z" transform="translate(-25.961 -4.698)" fill="#dc0017" stroke="#dc0017" stroke-width="0.2"/>
    <path id="I-2" data-name="I" d="M58.461,9.432l.034-.033V6.412l-.034-.034h-.527l-.033.033V9.4l.033.033Z" transform="translate(-42.896 -4.698)" fill="#dc0017" stroke="#dc0017" stroke-width="0.2"/>
    <path id="U" d="M74.55,6.379l-.033.033V8.365a.529.529,0,1,1-1.056,0V6.413l-.033-.034H72.9l-.033.034V8.386a1.121,1.121,0,0,0,2.239,0V6.413l-.033-.034Z" transform="translate(-53.986 -4.698)" fill="#dc0017" stroke="#dc0017" stroke-width="0.2"/>
    <path id="E" d="M85.577,9.432,85.61,9.4V8.934L85.577,8.9H84.2V8.158h1.167l.033-.033V7.66l-.033-.033H84.2V6.911h1.377l.033-.034V6.412l-.033-.034H83.639l-.033.034V9.4l.033.033Z" transform="translate(-61.941 -4.698)" fill="#dc0017" stroke="#dc0017" stroke-width="0.2"/>
    <path id="P" d="M50.061,7.384a.981.981,0,0,0-1-1.005H47.911l-.033.033V9.4l.033.034h.528l.033-.034V8.39h.585A.981.981,0,0,0,50.061,7.384Zm-1.034.469h-.556V6.911h.556a.473.473,0,0,1,0,.943Z" transform="translate(-35.471 -4.698)" fill="#dc0017" stroke="#dc0017" stroke-width="0.2"/>
  </g>
</svg>
