<svg id="Rembousement" xmlns="http://www.w3.org/2000/svg" width="27.774" height="30" viewBox="0 0 27.774 30">
  <path id="Tracé_1825" data-name="Tracé 1825" d="M42.7,6.293a13.783,13.783,0,0,0-7.838-3.927l.866-.866A.879.879,0,1,0,34.484.258L32.259,2.483a.879.879,0,0,0,0,1.243l2.226,2.226a.879.879,0,0,0,1.243-1.243l-.5-.5a12.116,12.116,0,1,1-6.43.473.879.879,0,1,0-.591-1.656A13.891,13.891,0,1,0,42.7,6.293Z" transform="translate(-18.993 0)" fill="#dc0017"/>
  <path id="Tracé_1826" data-name="Tracé 1826" d="M101.884,129.907a9.03,9.03,0,1,0,9.03-9.03,9.04,9.04,0,0,0-9.03,9.03Zm9.03-7.272a7.272,7.272,0,1,1-7.272,7.272A7.281,7.281,0,0,1,110.914,122.635Z" transform="translate(-97.026 -113.794)" fill="#dc0017"/>
  <path id="Tracé_1827" data-name="Tracé 1827" d="M210.164,182.128a7.473,7.473,0,0,1-1.888-.875.555.555,0,0,1-.11-.513.779.779,0,0,1,.509-.615,1.448,1.448,0,0,1,1.311.19.879.879,0,0,0,1.053-1.408,3.2,3.2,0,0,0-1.116-.518v-.236a.879.879,0,0,0-1.758,0v.29a2.518,2.518,0,0,0-1.726,1.971,2.257,2.257,0,0,0,.753,2.222,8.685,8.685,0,0,0,2.386,1.149.9.9,0,0,1,.659,1.062,1.209,1.209,0,0,1-1.2,1.019,2.075,2.075,0,0,1-1.506-.393.879.879,0,0,0-.962,1.471,3.579,3.579,0,0,0,1.6.639v.264a.879.879,0,0,0,1.758,0v-.354a2.886,2.886,0,0,0,1.119-.641,3.018,3.018,0,0,0,.929-1.714,2.659,2.659,0,0,0-1.806-3.01Z" transform="translate(-195.203 -166.887)" fill="#dc0017"/>
</svg>
